<?xml version="1.0" encoding="utf-8"?>
<!-- Generator: Adobe Illustrator 27.5.0, SVG Export Plug-In . SVG Version: 6.00 Build 0)  -->
<svg version="1.1" id="Layer_1" xmlns="http://www.w3.org/2000/svg" xmlns:xlink="http://www.w3.org/1999/xlink" x="0px" y="0px"
	 viewBox="0 0 427.7 431" style="enable-background:new 0 0 427.7 431;" xml:space="preserve">
<style type="text/css">
	.st0{fill:#595959;}
</style>
<g id="sUo0kE_00000045615996106215791780000002997356158880230538_">
	<g>
		<path class="st0" d="M419.7,214.4c2.5,90.1-62.9,185.1-169.4,203.9C135.7,438.6,33,362.7,12,256C-10.6,141.7,63.6,35.6,173,13.6
			C286.5-9.2,387,63.5,412.7,161.9c-1.5,0.1-3,0.2-4.4,0.2c-14.3,0-28.7-0.1-43,0.1c-3.3,0-4.7-0.9-6-4c-18.5-45-50.8-75.8-97-91.3
			c-62.3-21-132.8,1.2-172.4,53.8c-28.9,38.5-38.1,81.6-28.5,128.6c12.4,60.3,64.2,109.8,124.9,120c64.6,10.8,125.4-16.1,160.5-71.2
			c8.3-13,14.2-27,18.3-41.9c0.2-0.6,0.1-1.3,0.2-2.2c-34.2,0-68.3,0-103.2,0c11.3,20.8,22.4,41.2,34,62.4c-2.9,0-5,0-7,0
			c-13.1,0-26.2-0.1-39.3,0c-2.4,0-3.8-0.6-5-2.8c-17.7-32.6-35.5-65.2-53.3-97.8c-0.2-0.4-0.3-0.8-0.6-1.5
			C267.1,214.4,343.3,214.4,419.7,214.4z"/>
		<path class="st0" d="M305.1,191.7c-15.7,0-31,0-46.3,0c0-3.8,0.5-7.6-0.1-11.2c-2.2-13.7-12-23.9-26.1-24.6
			c-18.7-1-37.5-0.2-56.9-0.2c0,53.5,0,106.8,0,160.3c-1.5,0.1-2.4,0.3-3.4,0.3c-13.1,0-26.2,0-39.3,0.1c-2.8,0-4-0.6-3.9-3.7
			c0.1-36.6,0.2-73.2,0.2-109.9c0-29.5-0.1-59-0.1-88.5c0-1.8,0-3.6,0-5.9c1.7-0.2,3.1-0.4,4.5-0.4c31.6,0,63.2-0.2,94.8,0
			c42.6,0.3,75.8,33.1,76.9,75.7C305.5,186.3,305.2,188.9,305.1,191.7z"/>
	</g>
</g>
</svg>
