<?xml version="1.0" encoding="utf-8"?>
<!-- Generator: Adobe Illustrator 22.1.0, SVG Export Plug-In . SVG Version: 6.00 Build 0)  -->
<svg version="1.1" id="Layer_1" xmlns="http://www.w3.org/2000/svg" xmlns:xlink="http://www.w3.org/1999/xlink" x="0px" y="0px"
	 viewBox="0 0 292 57" style="enable-background:new 0 0 292 57;" xml:space="preserve">
<style type="text/css">
	.st0{fill:url(#SVGID_1_);}
	.st1{fill:#494949;}
</style>
<linearGradient id="SVGID_1_" gradientUnits="userSpaceOnUse" x1="15.9055" y1="50.8102" x2="39.7612" y2="9.4908">
	<stop  offset="0" style="stop-color:#009444"/>
	<stop  offset="0.7408" style="stop-color:#8DC63F"/>
	<stop  offset="1" style="stop-color:#8DD700"/>
</linearGradient>
<path class="st0" d="M43.7,20.6c-0.2,0.2-0.3,0.3-0.4,0.5c-3.7,5.1-7.4,10.1-11,15.2c-1.1,1.5-2.2,3-3.3,4.5
	c-0.1,0.1-0.2,0.2-0.3,0.4c-0.3,0.3-0.6,0.4-0.9,0c-0.1-0.1-0.1-0.1-0.2-0.2c-2.6-3.2-5.3-6.5-7.9-9.7c-0.9-1.1-1.8-2.2-2.7-3.3
	c-0.7-0.8-0.7-1.1-0.1-1.9c0.8-1.1,1.6-2.2,2.4-3.3c0.5-0.7,0.8-0.6,1.3,0c2.3,2.8,4.5,5.5,6.8,8.3c0.1,0.2,0.3,0.3,0.5,0.6
	c0.2-0.2,0.3-0.3,0.4-0.5c2.6-3.6,5.3-7.3,7.9-10.9c1.9-2.6,3.8-5.2,5.7-7.8c0.1-0.1,0.2-0.2,0.2-0.3c0.4-0.5,0.7-0.6,1.2-0.1
	c0.6,0.6,1.3,1.2,1.8,1.8c3.4,3.7,5.5,8,6.2,13c0.7,5.1-0.1,9.9-2.5,14.4c-1.3,2.5-3,4.7-5.1,6.6c-3.7,3.3-8.1,5.3-13.1,6
	c-4,0.5-7.8,0-11.5-1.4c-4.6-1.8-8.3-4.7-11.1-8.8c-3.3-4.8-4.6-10.2-4-16C4.6,23.3,6,19.5,8.6,16c3.9-5.3,9.1-8.5,15.7-9.5
	c4.8-0.7,9.4-0.1,13.7,2c0.1,0,0.2,0.1,0.3,0.1c0.5,0.3,0.5,0.6,0.2,1c-0.1,0.2-0.3,0.4-0.4,0.6c-0.5,0.7-1.1,1.5-1.6,2.2
	c-0.5,0.7-0.8,0.8-1.6,0.5c-2.2-0.9-4.5-1.4-6.9-1.4c-5.7,0-10.6,2.2-14.3,6.6c-3.3,3.9-4.7,8.4-4.4,13.5c0.5,7.6,5.6,14,12.8,16.3
	c10,3.2,20.5-2.3,23.5-12.3c1.5-5,1-9.8-1.5-14.3c-0.1-0.1-0.2-0.3-0.3-0.4C43.9,20.7,43.9,20.7,43.7,20.6z"/>
<g>
	<path class="st1" d="M91.7,49.7h-8.7l-17.4-40H75l12,29.8L99.4,9.7h8.9L91.7,49.7z"/>
	<path class="st1" d="M121.6,49.7v-40h20.7c9.4,0,14,3.4,14,12.1c0,5.6-2.6,9.9-8,11.2l9.9,16.8h-9.4l-8.9-15.7H130v15.7H121.6z
		 M130,16.9V27h10.3c5.6,0,7.5-1.2,7.5-5.1c0-2.4,0.1-5-7.5-5H130z"/>
	<path class="st1" d="M174.2,49.7V31.3c0-19.8,7-21.7,19.7-21.7h12.8v7h-13.6c-6.6,0-10,2.2-10.4,9.8h24v6.9h-24v16.4H174.2z"/>
	<path class="st1" d="M232.2,9.7v40h-8.8v-40H232.2z"/>
	<path class="st1" d="M251.8,49.7v-40h18.3c13.1,0,18.9,7.1,18.9,20.8c0,8.8-2.8,19.2-18.7,19.2H251.8z M260.2,16.6v26.1h9.7
		c6.7,0,9.8-1.5,9.8-13c0-9.2-1.7-13.1-9.8-13.1H260.2z"/>
</g>
</svg>
