<?xml version="1.0" encoding="utf-8"?>
<!-- Generator: Adobe Illustrator 21.1.0, SVG Export Plug-In . SVG Version: 6.00 Build 0)  -->
<svg version="1.1" id="Layer_1" xmlns="http://www.w3.org/2000/svg" xmlns:xlink="http://www.w3.org/1999/xlink" x="0px" y="0px"
	 viewBox="0 0 427.7 431" style="enable-background:new 0 0 427.7 431;" xml:space="preserve">
<style type="text/css">
	.st0{fill:#4DA5F5;}
</style>
<g>
	<path class="st0" d="M420.2,198.1H129.1v-67.7c3.9,0,7,0,10,0c47.4,0,94.9,0,142.3,0c14.7,0,17.2,2.5,17.3,17.1
		c0.1,13.1,0,26.1,0,39h35.2c0-16.8,0-32.7,0-48.6c-0.1-26-16.5-42.6-42.4-42.6c-62-0.1-124,0.2-186-0.2
		c-9.6-0.1-12.6,2.2-12.6,12.3c0.4,72.1,0.2,148.9,0.3,221c0,2.4,0.1,4.9,0.3,7.5h35.2V233.5h255c0.2,2.8,0.5,5.1,0.5,7.4
		c0.1,27.8-0.9,55.6,0.4,83.3c1.7,35.7-25.6,63.2-62.7,62.6c-72.8-1.3-145.7-0.4-218.5-0.5c-5.7,0-11.6-0.1-17.1-1.5
		c-26-6.2-43.1-27.3-43.3-54.3c-0.3-38.6,0.3-77.2,0.3-115.8c0-38.3-0.7-76.5-0.3-114.8c0.3-30.9,24.2-54.8,55-55
		c77.2-0.4,154.5-0.4,231.7,0c30.2,0.2,53.6,24.2,54.6,54.4c0.3,7.8-0.4,22,0.4,29.7c0,0.4,0.1,0.8,0.3,1.2h34.6
		c0.1-11.9,0.2-29.4-0.1-40.6c-1.1-42.2-38.7-79.8-80.8-80c-83-0.4-166-0.4-249,0C46.1,9.9,8.3,47.4,7.6,90.7
		c-0.7,51.8-1.1,103.6-1.1,155.4c-0.1,30.1,0.9,60.2,1.1,90.4c0.3,47.6,37.4,84.9,85.2,84.9c81,0.1,161.9,0.1,242.9,0
		c45.7-0.1,83.4-37.8,83.7-83.4c0.2-30.1,0.5-60.3,0.7-90.4C420.3,231.5,420.2,215.3,420.2,198.1z"/>
	<path class="st0" d="M299.3,334.8h34.5c-14.9-30.4-29.7-59.9-43.8-88.3c-0.2-0.4-0.6-0.8-1-1.2h-34.1c0,1.2,0,1.9,0.3,2.5
		c13.9,28.2,28.7,57.2,42.8,85.3C298.3,333.7,298.8,334.3,299.3,334.8z"/>
</g>
</svg>
