<?xml version="1.0" encoding="UTF-8"?>
<svg id="Layer_1" xmlns="http://www.w3.org/2000/svg" xmlns:xlink="http://www.w3.org/1999/xlink" viewBox="0 0 29 37">
  <defs>
    <style>
      .cls-1 {
        fill: none;
      }

      .cls-2 {
        fill: #444;
      }

      .cls-3 {
        fill: #41bbb4;
      }

      .cls-4 {
        clip-path: url(#clippath);
      }
    </style>
    <clipPath id="clippath">
      <rect class="cls-1" width="29" height="37"/>
    </clipPath>
  </defs>
  <g class="cls-4">
    <g>
      <path class="cls-2" d="M7.87,29.55c-2.52,0-4.86.02-7.19-.03-.22,0-.48-.38-.62-.64-.09-.16-.02-.43-.02-.64C.03,23.22.03,18.2.03,13.18.03,6.76,4.44,1.24,10.74.33,14.14-.16,17.64.06,21.1,0c.21,0,.61.47.62.72.05,1.89,0,3.78.04,5.67.01.69-.26.86-.9.85-2.34-.03-4.69-.02-7.04-.01-3.59.02-5.96,2.41-5.96,6.01v16.29h0Z"/>
      <path class="cls-3" d="M15.43,37v-6.99c1.25-.54,2.49-.89,3.51-1.56,1.9-1.24,2.87-4.26,2.2-6.41-.07-.23-.52-.45-.81-.46-1.26-.05-2.53-.02-3.79-.02-.35,0-.7-.03-1.17-.06,0-2.25-.02-4.42.03-6.59,0-.22.4-.62.62-.62,4.12-.04,8.23-.03,12.35,0,.22,0,.62.35.62.53-.07,4.03.22,8.12-.4,12.07-.81,5.16-5.54,9.14-10.71,9.86-.77.11-1.55.17-2.45.27h0Z"/>
    </g>
  </g>
</svg>